<svg width="27" height="28" viewBox="0 0 27 28" fill="none" xmlns="http://www.w3.org/2000/svg">
<path d="M7.03723 8.04872L6.29876 4.72729H4.16309" stroke="white" stroke-width="1.66071" stroke-linecap="round" stroke-linejoin="round"/>
<path fill-rule="evenodd" clip-rule="evenodd" d="M8.98789 17.1382L7.03711 8.04858H21.0513C21.7566 8.04858 22.2814 8.69848 22.1341 9.38823L20.4712 17.1382C20.3616 17.6486 19.911 18.0129 19.3884 18.0129H10.0696C9.54811 18.0129 9.0975 17.6486 8.98789 17.1382Z" stroke="white" stroke-width="1.66071" stroke-linecap="round" stroke-linejoin="round"/>
<path d="M19.7643 22.0263C19.5351 22.0263 19.3491 22.2123 19.3513 22.4415C19.3513 22.6707 19.5373 22.8567 19.7665 22.8567C19.9957 22.8567 20.1817 22.6707 20.1817 22.4415C20.1805 22.2123 19.9945 22.0263 19.7643 22.0263" stroke="white" stroke-width="1.66071" stroke-linecap="round" stroke-linejoin="round"/>
<path d="M10.2333 22.0263C10.0041 22.0263 9.81814 22.2123 9.82035 22.4415C9.81925 22.6707 10.0052 22.8567 10.2344 22.8567C10.4636 22.8567 10.6496 22.6707 10.6496 22.4415C10.6496 22.2123 10.4636 22.0263 10.2333 22.0263" stroke="white" stroke-width="1.66071" stroke-linecap="round" stroke-linejoin="round"/>
</svg>
