<svg width="15" height="15" viewBox="0 0 15 15" fill="none" xmlns="http://www.w3.org/2000/svg">
<g clip-path="url(#clip0_49_95)">
<path d="M9.95548 -0.00585938H4.52522C2.02639 -0.00585938 0 2.02053 0 4.51936V9.94963C0 12.4485 2.02639 14.4748 4.52522 14.4748H9.95548C12.4543 14.4748 14.4807 12.4485 14.4807 9.94963V4.51936C14.4807 2.02053 12.4543 -0.00585938 9.95548 -0.00585938ZM13.1231 9.94963C13.1231 11.6964 11.7022 13.1173 9.95548 13.1173H4.52522C2.77849 13.1173 1.35757 11.6964 1.35757 9.94963V4.51936C1.35757 2.77263 2.77849 1.35171 4.52522 1.35171H9.95548C11.7022 1.35171 13.1231 2.77263 13.1231 4.51936V9.94963Z" fill="#08151C"/>
<path d="M7.24127 3.62109C5.24203 3.62109 3.62109 5.24203 3.62109 7.24127C3.62109 9.24051 5.24203 10.8614 7.24127 10.8614C9.24051 10.8614 10.8614 9.24051 10.8614 7.24127C10.8614 5.24203 9.24051 3.62109 7.24127 3.62109ZM7.24127 9.50388C5.99412 9.50388 4.97866 8.48842 4.97866 7.24127C4.97866 5.99321 5.99412 4.97866 7.24127 4.97866C8.48842 4.97866 9.50388 5.99321 9.50388 7.24127C9.50388 8.48842 8.48842 9.50388 7.24127 9.50388Z" fill="#08151C"/>
<path d="M11.1308 3.83391C11.3972 3.83391 11.6132 3.61794 11.6132 3.35153C11.6132 3.08511 11.3972 2.86914 11.1308 2.86914C10.8644 2.86914 10.6484 3.08511 10.6484 3.35153C10.6484 3.61794 10.8644 3.83391 11.1308 3.83391Z" fill="#08151C"/>
</g>
<defs>
<clipPath id="clip0_49_95">
<rect width="14.4807" height="14.4807" fill="white"/>
</clipPath>
</defs>
</svg>
