<svg width="84" height="13" viewBox="0 0 84 13" fill="none" xmlns="http://www.w3.org/2000/svg">
<path d="M0.543945 0.671999C0.821279 0.682666 1.18395 0.693332 1.63195 0.703999C2.07995 0.714665 2.52795 0.719998 2.97595 0.719998C3.48795 0.719998 3.98395 0.714665 4.46395 0.703999C4.94395 0.693332 5.28528 0.687999 5.48795 0.687999C6.81061 0.687999 7.79728 0.922665 8.44795 1.392C9.10928 1.86133 9.43995 2.464 9.43995 3.2C9.43995 3.57333 9.32795 3.952 9.10395 4.336C8.87995 4.72 8.53328 5.06133 8.06395 5.36C7.59461 5.65867 6.98661 5.87733 6.23995 6.016V6.048C7.24261 6.12267 8.03728 6.304 8.62395 6.592C9.21061 6.88 9.63195 7.22667 9.88795 7.632C10.1439 8.03733 10.2719 8.45867 10.2719 8.896C10.2719 9.568 10.0959 10.1333 9.74395 10.592C9.39195 11.0507 8.88528 11.4027 8.22395 11.648C7.56261 11.8827 6.77328 12 5.85595 12C5.59995 12 5.23195 11.9947 4.75195 11.984C4.27195 11.9627 3.69061 11.952 3.00795 11.952C2.53861 11.952 2.07995 11.9573 1.63195 11.968C1.18395 11.968 0.821279 11.9787 0.543945 12V11.68C0.885279 11.6587 1.14128 11.616 1.31195 11.552C1.48261 11.488 1.59461 11.36 1.64795 11.168C1.71195 10.976 1.74395 10.688 1.74395 10.304V2.368C1.74395 1.97333 1.71195 1.68533 1.64795 1.504C1.59461 1.312 1.47728 1.184 1.29595 1.12C1.12528 1.04533 0.874612 1.00267 0.543945 0.991999V0.671999ZM5.27995 0.991999C4.86395 0.991999 4.59195 1.08267 4.46395 1.264C4.34661 1.44533 4.28795 1.81333 4.28795 2.368V10.304C4.28795 10.6773 4.31461 10.96 4.36795 11.152C4.43195 11.344 4.53861 11.472 4.68795 11.536C4.84795 11.6 5.08261 11.632 5.39195 11.632C6.15995 11.632 6.71995 11.392 7.07195 10.912C7.43461 10.4213 7.61595 9.728 7.61595 8.832C7.61595 8.01067 7.40795 7.376 6.99195 6.928C6.58661 6.48 5.90928 6.256 4.95995 6.256H3.59995C3.59995 6.256 3.59995 6.21333 3.59995 6.128C3.59995 6.032 3.59995 5.984 3.59995 5.984H4.97595C5.47728 5.984 5.86128 5.86667 6.12795 5.632C6.39461 5.38667 6.58128 5.06667 6.68795 4.672C6.79461 4.26667 6.84795 3.83467 6.84795 3.376C6.84795 2.58667 6.72528 1.99467 6.47995 1.6C6.23461 1.19467 5.83461 0.991999 5.27995 0.991999Z" fill="white"/>
<path d="M25.0539 0.671999V0.991999C24.7126 1.00267 24.4566 1.04533 24.2859 1.12C24.1153 1.184 23.9979 1.312 23.9339 1.504C23.8806 1.68533 23.8539 1.97333 23.8539 2.368V10.304C23.8539 10.688 23.8806 10.976 23.9339 11.168C23.9979 11.36 24.1153 11.488 24.2859 11.552C24.4566 11.616 24.7126 11.6587 25.0539 11.68V12C24.7873 11.9787 24.4246 11.968 23.9659 11.968C23.5179 11.9573 23.0379 11.952 22.5259 11.952C22.0886 11.952 21.6459 11.9573 21.1979 11.968C20.7499 11.968 20.3873 11.9787 20.1099 12V11.68C20.4406 11.6587 20.6913 11.616 20.8619 11.552C21.0433 11.488 21.1606 11.36 21.2139 11.168C21.2779 10.976 21.3099 10.688 21.3099 10.304V2.368C21.3099 1.81333 21.2459 1.44533 21.1179 1.264C21.0006 1.08267 20.7339 0.991999 20.3179 0.991999C19.5926 0.991999 19.0806 1.22133 18.7819 1.68C18.4833 2.13866 18.3339 2.77866 18.3339 3.6C18.3339 4.10133 18.3926 4.56 18.5099 4.976C18.6273 5.38133 18.8513 5.70667 19.1819 5.952C19.5126 6.18667 19.9926 6.304 20.6219 6.304H21.9979C21.9979 6.304 21.9979 6.35733 21.9979 6.464C21.9979 6.57067 21.9979 6.624 21.9979 6.624H20.4619C19.5126 6.624 18.7286 6.53867 18.1099 6.368C17.4913 6.19733 17.0006 5.968 16.6379 5.68C16.2859 5.392 16.0353 5.06667 15.8859 4.704C15.7473 4.34133 15.6779 3.96267 15.6779 3.568C15.6779 2.96 15.8379 2.44267 16.1579 2.016C16.4886 1.57867 16.9793 1.248 17.6299 1.024C18.2913 0.799999 19.1179 0.687999 20.1099 0.687999C20.3126 0.687999 20.6486 0.693332 21.1179 0.703999C21.5979 0.714665 22.0993 0.719998 22.6219 0.719998C23.0699 0.719998 23.5179 0.714665 23.9659 0.703999C24.4246 0.693332 24.7873 0.682666 25.0539 0.671999ZM21.9019 6.352L21.8699 6.624H20.1419C19.8113 6.624 19.5499 6.72533 19.3579 6.928C19.1766 7.12 19.0326 7.38667 18.9259 7.728C18.8193 8.05867 18.7286 8.448 18.6539 8.896L18.3659 10.496C18.2486 11.1573 18.0033 11.6107 17.6299 11.856C17.2566 12.1013 16.7873 12.224 16.2219 12.224C15.7633 12.224 15.3686 12.1493 15.0379 12C14.7073 11.8613 14.4033 11.6267 14.1259 11.296L14.3499 11.104C14.4566 11.2213 14.5526 11.312 14.6379 11.376C14.7339 11.4293 14.8513 11.4613 14.9899 11.472C15.1926 11.472 15.3473 11.3867 15.4539 11.216C15.5606 11.0453 15.6566 10.7467 15.7419 10.32L16.0779 8.672C16.2166 7.98933 16.5313 7.49867 17.0219 7.2C17.5126 6.90133 18.2166 6.69333 19.1339 6.576C19.3366 6.544 19.5393 6.51733 19.7419 6.496C19.9446 6.47467 20.2113 6.45333 20.5419 6.432C20.8833 6.4 21.3366 6.37333 21.9019 6.352Z" fill="white"/>
<path d="M34.1782 0.447998C34.9035 0.447998 35.5382 0.543998 36.0822 0.735998C36.6262 0.927998 37.0529 1.20533 37.3622 1.568C37.6715 1.93067 37.8262 2.36267 37.8262 2.864C37.8262 3.312 37.7089 3.712 37.4742 4.064C37.2395 4.40533 36.9355 4.70933 36.5622 4.976C36.1889 5.232 35.7835 5.44533 35.3462 5.616C34.9195 5.78667 34.5035 5.91467 34.0982 6C34.6102 6.01067 35.1222 6.07467 35.6342 6.192C36.1462 6.30933 36.6102 6.49067 37.0262 6.736C37.4529 6.98133 37.7942 7.29067 38.0502 7.664C38.3062 8.02667 38.4342 8.45867 38.4342 8.96C38.4342 9.48267 38.2902 9.952 38.0022 10.368C37.7249 10.7733 37.3462 11.1147 36.8662 11.392C36.3969 11.6587 35.8635 11.8613 35.2662 12C34.6689 12.1493 34.0555 12.224 33.4262 12.224C32.8822 12.224 32.3542 12.1653 31.8422 12.048C31.3409 11.9307 30.9089 11.7387 30.5462 11.472C30.3115 11.3013 30.1035 11.0933 29.9222 10.848C29.7515 10.592 29.6662 10.3093 29.6662 10C29.6662 9.59467 29.7995 9.27467 30.0662 9.04C30.3329 8.80533 30.6529 8.688 31.0262 8.688C31.3995 8.688 31.7035 8.79467 31.9382 9.008C32.1729 9.22133 32.2902 9.54133 32.2902 9.968C32.2902 10.2987 32.1782 10.5813 31.9542 10.816C31.7409 11.0507 31.4422 11.216 31.0582 11.312C31.2609 11.472 31.5435 11.6053 31.9062 11.712C32.2689 11.8187 32.6902 11.872 33.1702 11.872C34.0555 11.872 34.7435 11.6267 35.2342 11.136C35.7355 10.6347 35.9862 9.92 35.9862 8.992C35.9862 8.50133 35.9115 8.04267 35.7622 7.616C35.6129 7.18933 35.3782 6.84267 35.0582 6.576C34.7382 6.30933 34.3329 6.16533 33.8422 6.144C33.7355 6.19733 33.6235 6.24533 33.5062 6.288C33.3995 6.33067 33.2822 6.352 33.1542 6.352C33.0689 6.352 32.9889 6.33067 32.9142 6.288C32.8502 6.24533 32.8182 6.176 32.8182 6.08C32.8182 5.90933 32.9409 5.824 33.1862 5.824C33.2929 5.824 33.4049 5.83467 33.5222 5.856C33.6395 5.87733 33.7515 5.89867 33.8582 5.92C34.2529 5.76 34.5569 5.54133 34.7702 5.264C34.9942 4.976 35.1489 4.65067 35.2342 4.288C35.3195 3.92533 35.3622 3.54667 35.3622 3.152C35.3622 2.36267 35.2075 1.792 34.8982 1.44C34.5995 1.088 34.1622 0.911999 33.5862 0.911999C32.9782 0.911999 32.4769 1.072 32.0822 1.392C31.6875 1.70133 31.3835 2.11733 31.1702 2.64C30.9675 3.152 30.8449 3.71733 30.8022 4.336H30.4342C30.4342 3.664 30.4289 3.09866 30.4182 2.64C30.4182 2.18133 30.4129 1.792 30.4022 1.472C30.4022 1.152 30.3915 0.869332 30.3702 0.623999H30.7382C30.7702 0.911999 30.8129 1.13067 30.8662 1.28C30.9195 1.41867 31.0102 1.488 31.1382 1.488C31.2235 1.488 31.3515 1.42933 31.5222 1.312C31.7462 1.16267 31.9702 1.024 32.1942 0.895999C32.4182 0.757332 32.6849 0.650665 32.9942 0.575998C33.3142 0.490665 33.7089 0.447998 34.1782 0.447998Z" fill="white"/>
<path d="M48.2561 0.639998L52.1441 10.656C52.2934 11.04 52.4587 11.3067 52.6401 11.456C52.8321 11.5947 53.0027 11.6693 53.1521 11.68V12C52.8321 11.9787 52.4534 11.968 52.0161 11.968C51.5894 11.9573 51.1574 11.952 50.7201 11.952C50.2294 11.952 49.7654 11.9573 49.3281 11.968C48.8907 11.968 48.5441 11.9787 48.2881 12V11.68C48.8321 11.6587 49.1734 11.568 49.3121 11.408C49.4614 11.2373 49.4294 10.88 49.2161 10.336L46.4961 2.896L46.7841 2.48L44.3521 8.816C44.1174 9.40267 43.9734 9.88267 43.9201 10.256C43.8774 10.6293 43.9041 10.9173 44.0001 11.12C44.1067 11.3227 44.2721 11.4667 44.4961 11.552C44.7307 11.6267 45.0081 11.6693 45.3281 11.68V12C44.9761 11.9787 44.6401 11.968 44.3201 11.968C44.0001 11.9573 43.6747 11.952 43.3441 11.952C43.1094 11.952 42.8854 11.9573 42.6721 11.968C42.4694 11.968 42.2881 11.9787 42.1281 12V11.68C42.3521 11.6373 42.5814 11.4933 42.8161 11.248C43.0507 11.0027 43.2801 10.5867 43.5041 10L47.1521 0.639998C47.3227 0.650665 47.5041 0.655998 47.6961 0.655998C47.8987 0.655998 48.0854 0.650665 48.2561 0.639998ZM49.3761 7.392V7.712H44.6081L44.7681 7.392H49.3761Z" fill="white"/>
<path d="M64.0479 12V11.68C64.3893 11.6587 64.6453 11.616 64.8159 11.552C64.9866 11.488 65.0986 11.36 65.1519 11.168C65.2159 10.976 65.2479 10.688 65.2479 10.304V2.368C65.2479 1.97333 65.2159 1.68533 65.1519 1.504C65.0986 1.312 64.9813 1.184 64.7999 1.12C64.6293 1.04533 64.3786 1.00267 64.0479 0.991999V0.671999C64.3359 0.682666 64.7093 0.693332 65.1679 0.703999C65.6373 0.714665 66.1013 0.719998 66.5599 0.719998C67.0506 0.719998 67.5093 0.714665 67.9359 0.703999C68.3733 0.693332 68.7253 0.682666 68.9919 0.671999V0.991999C68.6506 1.00267 68.3893 1.04533 68.2079 1.12C68.0373 1.184 67.9253 1.312 67.8719 1.504C67.8186 1.68533 67.7919 1.97333 67.7919 2.368V10.304C67.7919 10.688 67.8186 10.976 67.8719 11.168C67.9359 11.36 68.0533 11.488 68.2239 11.552C68.3946 11.616 68.6506 11.6587 68.9919 11.68V12C68.7253 11.9787 68.3733 11.968 67.9359 11.968C67.5093 11.9573 67.0506 11.952 66.5599 11.952C66.1013 11.952 65.6373 11.9573 65.1679 11.968C64.7093 11.968 64.3359 11.9787 64.0479 12ZM57.2639 12V11.68C57.6053 11.6587 57.8613 11.616 58.0319 11.552C58.2026 11.488 58.3146 11.36 58.3679 11.168C58.4319 10.976 58.4639 10.688 58.4639 10.304V2.368C58.4639 1.97333 58.4319 1.68533 58.3679 1.504C58.3146 1.312 58.1973 1.184 58.0159 1.12C57.8453 1.04533 57.5946 1.00267 57.2639 0.991999V0.671999C57.5413 0.682666 57.8986 0.693332 58.3359 0.703999C58.7839 0.714665 59.2693 0.719998 59.7919 0.719998C60.2399 0.719998 60.6826 0.714665 61.1199 0.703999C61.5573 0.693332 61.9199 0.682666 62.2079 0.671999V0.991999C61.8666 1.00267 61.6053 1.04533 61.4239 1.12C61.2533 1.184 61.1413 1.312 61.0879 1.504C61.0346 1.68533 61.0079 1.97333 61.0079 2.368V10.304C61.0079 10.688 61.0346 10.976 61.0879 11.168C61.1519 11.36 61.2693 11.488 61.4399 11.552C61.6106 11.616 61.8666 11.6587 62.2079 11.68V12C61.9199 11.9787 61.5573 11.968 61.1199 11.968C60.6826 11.9573 60.2399 11.952 59.7919 11.952C59.2693 11.952 58.7839 11.9573 58.3359 11.968C57.8986 11.968 57.5413 11.9787 57.2639 12ZM59.9679 6.464V6.144H66.2879V6.464H59.9679Z" fill="white"/>
<path d="M78.8128 0.671999V0.991999C78.4395 1.00267 78.1568 1.04533 77.9648 1.12C77.7728 1.184 77.6448 1.312 77.5808 1.504C77.5168 1.68533 77.4848 1.97333 77.4848 2.368V10.304C77.4848 10.6667 77.5062 10.9493 77.5488 11.152C77.5915 11.344 77.6822 11.4827 77.8208 11.568C77.9595 11.6427 78.1568 11.68 78.4128 11.68C78.9355 11.68 79.3408 11.5573 79.6288 11.312C79.9168 11.0667 80.1195 10.7253 80.2368 10.288C80.3542 9.84 80.4128 9.312 80.4128 8.704C80.4128 8.096 80.3435 7.55733 80.2048 7.088C80.0768 6.608 79.8528 6.23467 79.5328 5.968C79.2128 5.70133 78.7595 5.568 78.1728 5.568C77.9808 5.568 77.7782 5.568 77.5648 5.568C77.3622 5.568 77.1595 5.57333 76.9568 5.584C76.7648 5.584 76.5942 5.584 76.4448 5.584V5.264C76.8075 5.264 77.1648 5.264 77.5168 5.264C77.8795 5.25333 78.1835 5.248 78.4288 5.248C79.2928 5.248 80.0235 5.33333 80.6208 5.504C81.2182 5.67467 81.6928 5.90933 82.0448 6.208C82.4075 6.50667 82.6688 6.85333 82.8288 7.248C82.9888 7.632 83.0688 8.04267 83.0688 8.48C83.0688 8.93867 82.9835 9.38133 82.8128 9.808C82.6422 10.2347 82.3702 10.6133 81.9968 10.944C81.6342 11.264 81.1648 11.52 80.5888 11.712C80.0128 11.8933 79.3195 11.984 78.5088 11.984C78.2635 11.984 77.9382 11.9787 77.5328 11.968C77.1382 11.9573 76.6742 11.952 76.1408 11.952C75.7142 11.952 75.2715 11.9573 74.8128 11.968C74.3648 11.968 74.0075 11.9787 73.7408 12V11.68C74.0715 11.6587 74.3222 11.616 74.4928 11.552C74.6742 11.488 74.7915 11.36 74.8448 11.168C74.9088 10.976 74.9408 10.688 74.9408 10.304V2.368C74.9408 1.97333 74.9088 1.68533 74.8448 1.504C74.7915 1.312 74.6742 1.184 74.4928 1.12C74.3222 1.04533 74.0715 1.00267 73.7408 0.991999V0.671999C74.0075 0.682666 74.3648 0.693332 74.8128 0.703999C75.2715 0.714665 75.7568 0.719998 76.2688 0.719998C76.7382 0.719998 77.2022 0.714665 77.6608 0.703999C78.1302 0.693332 78.5142 0.682666 78.8128 0.671999Z" fill="white"/>
</svg>
