<svg width="27" height="28" viewBox="0 0 27 28" fill="none" xmlns="http://www.w3.org/2000/svg">
<path fill-rule="evenodd" clip-rule="evenodd" d="M13.2907 23.9735C18.7961 23.9735 23.2591 19.5105 23.2591 14.0051C23.2591 8.49964 18.7961 4.03662 13.2907 4.03662C7.78529 4.03662 3.32227 8.49964 3.32227 14.0051C3.32227 19.5105 7.78529 23.9735 13.2907 23.9735Z" stroke="white" stroke-width="1.66071" stroke-linecap="round" stroke-linejoin="round"/>
<path d="M13.2912 9.57471C14.6504 9.57471 15.7523 10.6766 15.7523 12.0358C15.7523 13.395 14.6504 14.4969 13.2912 14.4969C11.9319 14.4969 10.8301 13.395 10.8301 12.0358C10.8301 10.6766 11.9319 9.57471 13.2912 9.57471" stroke="white" stroke-width="1.66071" stroke-linecap="round" stroke-linejoin="round"/>
<path fill-rule="evenodd" clip-rule="evenodd" d="M17.7143 18.9816C15.2674 21.4284 11.3072 21.4061 8.86035 18.9593C8.98983 18.6356 9.18958 18.3447 9.44517 18.1076C9.87725 17.7064 10.445 17.4833 11.0346 17.4829H15.5481C16.1374 17.4832 16.7047 17.7064 17.1364 18.1076C17.3926 18.3442 17.5924 18.6353 17.7212 18.9593L17.7143 18.9816Z" stroke="white" stroke-width="1.66071" stroke-linecap="round" stroke-linejoin="round"/>
</svg>
