<svg width="17" height="10" viewBox="0 0 17 10" fill="none" xmlns="http://www.w3.org/2000/svg">
<path d="M13.6764 5.72519C13.41 5.37574 13.4862 5.22027 13.6764 4.90791C13.6798 4.90435 15.8795 1.74794 16.1061 0.677495L16.1075 0.676782C16.2201 0.286687 16.1075 0 15.5629 0H13.7609C13.3021 0 13.0906 0.246038 12.9773 0.521314C12.9773 0.521314 12.0598 2.80198 10.7619 4.28034C10.343 4.70752 10.1493 4.84444 9.92064 4.84444C9.80801 4.84444 9.63289 4.70752 9.63289 4.31742V0.676782C9.63289 0.208954 9.50447 0 9.1247 0H6.29122C6.00347 0 5.83248 0.218225 5.83248 0.421473C5.83248 0.865054 6.48144 0.967034 6.54875 2.21505V4.92289C6.54875 5.51623 6.44505 5.62535 6.21499 5.62535C5.60242 5.62535 4.11563 3.33541 3.23454 0.714579C3.05668 0.206101 2.88293 0.000713101 2.42076 0.000713101H0.618065C0.103698 0.000713101 0 0.246751 0 0.522027C0 1.0084 0.612571 3.4267 2.84859 6.62162C4.33882 8.80244 6.43749 9.98413 8.34663 9.98413C9.49417 9.98413 9.63426 9.72169 9.63426 9.27027C9.63426 7.18644 9.53057 6.98961 10.1054 6.98961C10.3718 6.98961 10.8306 7.12653 11.9019 8.17843C13.1263 9.42573 13.3275 9.98413 14.0129 9.98413H15.8149C16.3286 9.98413 16.5889 9.72169 16.4392 9.20394C16.0965 8.11496 13.7808 5.87495 13.6764 5.72519Z" fill="#08151C"/>
</svg>
